ISO-10303-21;
HEADER;
/* Generated by software containing ST-Developer
 * from STEP Tools, Inc. (www.steptools.com) 
 */

FILE_DESCRIPTION(
/* description */ (''),
/* implementation_level */ '2;1');

FILE_NAME(
/* name */ 'Dam1.stp',
/* time_stamp */ '2026-09-08T12:06:15+07:00',
/* author */ ('trtrn'),
/* organization */ (''),
/* preprocessor_version */ 'ST-DEVELOPER v20.1',
/* originating_system */ 'Autodesk Inventor 2027',
/* authorisation */ '');

FILE_SCHEMA (('AUTOMOTIVE_DESIGN { 1 0 10303 214 3 1 1 }'));
ENDSEC;

DATA;
#10=MECHANICAL_DESIGN_GEOMETRIC_PRESENTATION_REPRESENTATION('',(#13),#1155);
#11=SHAPE_REPRESENTATION_RELATIONSHIP('SRR','None',#1162,#12);
#12=ADVANCED_BREP_SHAPE_REPRESENTATION('',(#14),#1154);
#13=STYLED_ITEM('',(#1171),#14);
#14=MANIFOLD_SOLID_BREP('Solid1',#652);
#15=FACE_BOUND('',#97,.T.);
#16=FACE_BOUND('',#98,.T.);
#17=FACE_BOUND('',#100,.T.);
#18=FACE_BOUND('',#101,.T.);
#19=FACE_BOUND('',#102,.T.);
#20=FACE_BOUND('',#103,.T.);
#21=FACE_BOUND('',#104,.T.);
#22=FACE_BOUND('',#105,.T.);
#23=FACE_BOUND('',#110,.T.);
#24=FACE_BOUND('',#111,.T.);
#25=FACE_BOUND('',#112,.T.);
#26=FACE_BOUND('',#119,.T.);
#27=FACE_BOUND('',#123,.T.);
#28=FACE_BOUND('',#127,.T.);
#29=FACE_BOUND('',#131,.T.);
#30=FACE_BOUND('',#135,.T.);
#31=FACE_BOUND('',#136,.T.);
#32=FACE_BOUND('',#140,.T.);
#33=FACE_BOUND('',#144,.T.);
#34=FACE_BOUND('',#145,.T.);
#35=FACE_BOUND('',#146,.T.);
#36=PLANE('',#679);
#37=PLANE('',#682);
#38=PLANE('',#686);
#39=PLANE('',#690);
#40=PLANE('',#706);
#41=PLANE('',#710);
#42=PLANE('',#718);
#43=PLANE('',#724);
#44=PLANE('',#730);
#45=PLANE('',#735);
#46=PLANE('',#740);
#47=PLANE('',#746);
#48=PLANE('',#747);
#49=PLANE('',#748);
#50=PLANE('',#749);
#51=ELLIPSE('',#677,41.,25.625);
#52=ELLIPSE('',#678,41.,25.625);
#53=(
BOUNDED_SURFACE()
B_SPLINE_SURFACE(1,2,((#966,#967,#968),(#969,#970,#971)),.UNSPECIFIED.,
 .F.,.F.,.F.)
B_SPLINE_SURFACE_WITH_KNOTS((2,2),(3,3),(0.,1.51219512195122),(0.915043501037131,
2.22654915255266),.UNSPECIFIED.)
GEOMETRIC_REPRESENTATION_ITEM()
RATIONAL_B_SPLINE_SURFACE(((1.,0.792589112647411,1.),(1.,0.792589112647411,
1.)))
REPRESENTATION_ITEM('')
SURFACE()
);
#54=FACE_OUTER_BOUND('',#90,.T.);
#55=FACE_OUTER_BOUND('',#91,.T.);
#56=FACE_OUTER_BOUND('',#92,.T.);
#57=FACE_OUTER_BOUND('',#93,.T.);
#58=FACE_OUTER_BOUND('',#94,.T.);
#59=FACE_OUTER_BOUND('',#95,.T.);
#60=FACE_OUTER_BOUND('',#96,.T.);
#61=FACE_OUTER_BOUND('',#99,.T.);
#62=FACE_OUTER_BOUND('',#106,.T.);
#63=FACE_OUTER_BOUND('',#107,.T.);
#64=FACE_OUTER_BOUND('',#108,.T.);
#65=FACE_OUTER_BOUND('',#109,.T.);
#66=FACE_OUTER_BOUND('',#113,.T.);
#67=FACE_OUTER_BOUND('',#114,.T.);
#68=FACE_OUTER_BOUND('',#115,.T.);
#69=FACE_OUTER_BOUND('',#116,.T.);
#70=FACE_OUTER_BOUND('',#117,.T.);
#71=FACE_OUTER_BOUND('',#118,.T.);
#72=FACE_OUTER_BOUND('',#120,.T.);
#73=FACE_OUTER_BOUND('',#121,.T.);
#74=FACE_OUTER_BOUND('',#122,.T.);
#75=FACE_OUTER_BOUND('',#124,.T.);
#76=FACE_OUTER_BOUND('',#125,.T.);
#77=FACE_OUTER_BOUND('',#126,.T.);
#78=FACE_OUTER_BOUND('',#128,.T.);
#79=FACE_OUTER_BOUND('',#129,.T.);
#80=FACE_OUTER_BOUND('',#130,.T.);
#81=FACE_OUTER_BOUND('',#132,.T.);
#82=FACE_OUTER_BOUND('',#133,.T.);
#83=FACE_OUTER_BOUND('',#134,.T.);
#84=FACE_OUTER_BOUND('',#137,.T.);
#85=FACE_OUTER_BOUND('',#138,.T.);
#86=FACE_OUTER_BOUND('',#139,.T.);
#87=FACE_OUTER_BOUND('',#141,.T.);
#88=FACE_OUTER_BOUND('',#142,.T.);
#89=FACE_OUTER_BOUND('',#143,.T.);
#90=EDGE_LOOP('',(#422,#423,#424,#425));
#91=EDGE_LOOP('',(#426,#427,#428,#429,#430,#431));
#92=EDGE_LOOP('',(#432,#433,#434,#435,#436,#437,#438,#439));
#93=EDGE_LOOP('',(#440,#441,#442,#443));
#94=EDGE_LOOP('',(#444,#445,#446,#447,#448,#449));
#95=EDGE_LOOP('',(#450,#451,#452,#453));
#96=EDGE_LOOP('',(#454,#455,#456,#457,#458,#459,#460,#461));
#97=EDGE_LOOP('',(#462));
#98=EDGE_LOOP('',(#463));
#99=EDGE_LOOP('',(#464,#465,#466,#467,#468,#469,#470,#471));
#100=EDGE_LOOP('',(#472));
#101=EDGE_LOOP('',(#473));
#102=EDGE_LOOP('',(#474));
#103=EDGE_LOOP('',(#475));
#104=EDGE_LOOP('',(#476));
#105=EDGE_LOOP('',(#477));
#106=EDGE_LOOP('',(#478,#479,#480,#481));
#107=EDGE_LOOP('',(#482,#483,#484,#485));
#108=EDGE_LOOP('',(#486,#487,#488,#489));
#109=EDGE_LOOP('',(#490,#491,#492,#493,#494,#495,#496));
#110=EDGE_LOOP('',(#497));
#111=EDGE_LOOP('',(#498));
#112=EDGE_LOOP('',(#499));
#113=EDGE_LOOP('',(#500,#501,#502,#503));
#114=EDGE_LOOP('',(#504,#505,#506,#507));
#115=EDGE_LOOP('',(#508,#509,#510,#511));
#116=EDGE_LOOP('',(#512,#513,#514,#515));
#117=EDGE_LOOP('',(#516,#517,#518,#519));
#118=EDGE_LOOP('',(#520));
#119=EDGE_LOOP('',(#521));
#120=EDGE_LOOP('',(#522,#523,#524,#525));
#121=EDGE_LOOP('',(#526,#527,#528,#529));
#122=EDGE_LOOP('',(#530));
#123=EDGE_LOOP('',(#531));
#124=EDGE_LOOP('',(#532,#533,#534,#535));
#125=EDGE_LOOP('',(#536,#537,#538,#539));
#126=EDGE_LOOP('',(#540));
#127=EDGE_LOOP('',(#541));
#128=EDGE_LOOP('',(#542,#543,#544,#545));
#129=EDGE_LOOP('',(#546,#547,#548,#549));
#130=EDGE_LOOP('',(#550));
#131=EDGE_LOOP('',(#551));
#132=EDGE_LOOP('',(#552,#553,#554,#555));
#133=EDGE_LOOP('',(#556,#557,#558,#559));
#134=EDGE_LOOP('',(#560));
#135=EDGE_LOOP('',(#561));
#136=EDGE_LOOP('',(#562));
#137=EDGE_LOOP('',(#563,#564,#565,#566));
#138=EDGE_LOOP('',(#567,#568,#569,#570));
#139=EDGE_LOOP('',(#571,#572,#573,#574));
#140=EDGE_LOOP('',(#575));
#141=EDGE_LOOP('',(#576,#577,#578,#579,#580,#581));
#142=EDGE_LOOP('',(#582,#583,#584,#585));
#143=EDGE_LOOP('',(#586,#587,#588,#589,#590,#591,#592));
#144=EDGE_LOOP('',(#593));
#145=EDGE_LOOP('',(#594));
#146=EDGE_LOOP('',(#595));
#147=CIRCLE('',#676,4.);
#148=CIRCLE('',#681,4.);
#149=CIRCLE('',#684,4.);
#150=CIRCLE('',#685,4.);
#151=CIRCLE('',#687,25.);
#152=CIRCLE('',#688,2.15);
#153=CIRCLE('',#689,2.15);
#154=CIRCLE('',#691,4.);
#155=CIRCLE('',#692,4.);
#156=CIRCLE('',#693,4.);
#157=CIRCLE('',#694,2.15);
#158=CIRCLE('',#695,2.15);
#159=CIRCLE('',#696,2.15);
#160=CIRCLE('',#697,2.15);
#161=CIRCLE('',#698,2.65);
#162=CIRCLE('',#699,2.65);
#163=CIRCLE('',#701,4.);
#164=CIRCLE('',#703,4.);
#165=CIRCLE('',#705,4.);
#166=CIRCLE('',#707,3.76);
#167=CIRCLE('',#708,3.76);
#168=CIRCLE('',#709,2.65);
#169=CIRCLE('',#712,2.15);
#170=CIRCLE('',#714,2.15);
#171=CIRCLE('',#716,2.65);
#172=CIRCLE('',#719,3.76);
#173=CIRCLE('',#720,2.15);
#174=CIRCLE('',#722,3.76);
#175=CIRCLE('',#725,3.76);
#176=CIRCLE('',#726,2.15);
#177=CIRCLE('',#728,3.76);
#178=CIRCLE('',#731,3.76);
#179=CIRCLE('',#732,2.15);
#180=CIRCLE('',#736,3.76);
#181=CIRCLE('',#737,2.15);
#182=CIRCLE('',#741,19.);
#183=CIRCLE('',#743,19.);
#184=CIRCLE('',#745,25.);
#185=LINE('',#962,#230);
#186=LINE('',#965,#231);
#187=LINE('',#986,#232);
#188=LINE('',#989,#233);
#189=LINE('',#992,#234);
#190=LINE('',#994,#235);
#191=LINE('',#996,#236);
#192=LINE('',#998,#237);
#193=LINE('',#1000,#238);
#194=LINE('',#1001,#239);
#195=LINE('',#1005,#240);
#196=LINE('',#1008,#241);
#197=LINE('',#1010,#242);
#198=LINE('',#1012,#243);
#199=LINE('',#1013,#244);
#200=LINE('',#1019,#245);
#201=LINE('',#1022,#246);
#202=LINE('',#1025,#247);
#203=LINE('',#1027,#248);
#204=LINE('',#1029,#249);
#205=LINE('',#1031,#250);
#206=LINE('',#1033,#251);
#207=LINE('',#1040,#252);
#208=LINE('',#1045,#253);
#209=LINE('',#1062,#254);
#210=LINE('',#1066,#255);
#211=LINE('',#1070,#256);
#212=LINE('',#1072,#257);
#213=LINE('',#1073,#258);
#214=LINE('',#1081,#259);
#215=LINE('',#1085,#260);
#216=LINE('',#1089,#261);
#217=LINE('',#1093,#262);
#218=LINE('',#1095,#263);
#219=LINE('',#1104,#264);
#220=LINE('',#1106,#265);
#221=LINE('',#1115,#266);
#222=LINE('',#1117,#267);
#223=LINE('',#1124,#268);
#224=LINE('',#1126,#269);
#225=LINE('',#1133,#270);
#226=LINE('',#1135,#271);
#227=LINE('',#1141,#272);
#228=LINE('',#1146,#273);
#229=LINE('',#1148,#274);
#230=VECTOR('',#754,10.);
#231=VECTOR('',#757,10.);
#232=VECTOR('',#760,10.);
#233=VECTOR('',#763,10.);
#234=VECTOR('',#766,10.);
#235=VECTOR('',#767,10.);
#236=VECTOR('',#768,10.);
#237=VECTOR('',#769,10.);
#238=VECTOR('',#770,10.);
#239=VECTOR('',#771,10.);
#240=VECTOR('',#776,10.);
#241=VECTOR('',#779,10.);
#242=VECTOR('',#780,10.);
#243=VECTOR('',#781,10.);
#244=VECTOR('',#782,10.);
#245=VECTOR('',#787,10.);
#246=VECTOR('',#790,10.);
#247=VECTOR('',#793,10.);
#248=VECTOR('',#794,10.);
#249=VECTOR('',#795,10.);
#250=VECTOR('',#796,10.);
#251=VECTOR('',#799,10.);
#252=VECTOR('',#806,10.);
#253=VECTOR('',#811,10.);
#254=VECTOR('',#830,10.);
#255=VECTOR('',#835,10.);
#256=VECTOR('',#840,10.);
#257=VECTOR('',#843,10.);
#258=VECTOR('',#844,10.);
#259=VECTOR('',#853,10.);
#260=VECTOR('',#858,2.15);
#261=VECTOR('',#863,2.15);
#262=VECTOR('',#868,2.65);
#263=VECTOR('',#871,2.65);
#264=VECTOR('',#882,3.76);
#265=VECTOR('',#885,2.15);
#266=VECTOR('',#896,3.76);
#267=VECTOR('',#899,2.15);
#268=VECTOR('',#908,3.76);
#269=VECTOR('',#911,2.15);
#270=VECTOR('',#920,3.76);
#271=VECTOR('',#923,2.15);
#272=VECTOR('',#930,19.);
#273=VECTOR('',#937,10.);
#274=VECTOR('',#940,10.);
#275=B_SPLINE_CURVE_WITH_KNOTS('',3,(#951,#952,#953,#954,#955,#956,#957,
#958,#959,#960),.UNSPECIFIED.,.F.,.F.,(4,2,2,2,4),(1.86678594217647,2.03036605003648,
2.19394615789648,2.34450822036346,2.49507028283043),.UNSPECIFIED.);
#276=B_SPLINE_CURVE_WITH_KNOTS('',3,(#975,#976,#977,#978,#979,#980,#981,
#982,#983,#984),.UNSPECIFIED.,.F.,.F.,(4,2,2,2,4),(2.49507028283043,2.6456323452974,
2.79619440776438,2.95977451562438,3.12335462348439),.UNSPECIFIED.);
#277=VERTEX_POINT('',#949);
#278=VERTEX_POINT('',#950);
#279=VERTEX_POINT('',#961);
#280=VERTEX_POINT('',#963);
#281=VERTEX_POINT('',#972);
#282=VERTEX_POINT('',#974);
#283=VERTEX_POINT('',#985);
#284=VERTEX_POINT('',#987);
#285=VERTEX_POINT('',#991);
#286=VERTEX_POINT('',#993);
#287=VERTEX_POINT('',#995);
#288=VERTEX_POINT('',#997);
#289=VERTEX_POINT('',#999);
#290=VERTEX_POINT('',#1003);
#291=VERTEX_POINT('',#1007);
#292=VERTEX_POINT('',#1009);
#293=VERTEX_POINT('',#1011);
#294=VERTEX_POINT('',#1015);
#295=VERTEX_POINT('',#1016);
#296=VERTEX_POINT('',#1018);
#297=VERTEX_POINT('',#1020);
#298=VERTEX_POINT('',#1024);
#299=VERTEX_POINT('',#1026);
#300=VERTEX_POINT('',#1028);
#301=VERTEX_POINT('',#1030);
#302=VERTEX_POINT('',#1034);
#303=VERTEX_POINT('',#1036);
#304=VERTEX_POINT('',#1039);
#305=VERTEX_POINT('',#1042);
#306=VERTEX_POINT('',#1044);
#307=VERTEX_POINT('',#1047);
#308=VERTEX_POINT('',#1049);
#309=VERTEX_POINT('',#1051);
#310=VERTEX_POINT('',#1053);
#311=VERTEX_POINT('',#1055);
#312=VERTEX_POINT('',#1057);
#313=VERTEX_POINT('',#1060);
#314=VERTEX_POINT('',#1064);
#315=VERTEX_POINT('',#1068);
#316=VERTEX_POINT('',#1074);
#317=VERTEX_POINT('',#1076);
#318=VERTEX_POINT('',#1078);
#319=VERTEX_POINT('',#1083);
#320=VERTEX_POINT('',#1087);
#321=VERTEX_POINT('',#1091);
#322=VERTEX_POINT('',#1097);
#323=VERTEX_POINT('',#1099);
#324=VERTEX_POINT('',#1102);
#325=VERTEX_POINT('',#1108);
#326=VERTEX_POINT('',#1110);
#327=VERTEX_POINT('',#1113);
#328=VERTEX_POINT('',#1119);
#329=VERTEX_POINT('',#1121);
#330=VERTEX_POINT('',#1128);
#331=VERTEX_POINT('',#1130);
#332=VERTEX_POINT('',#1137);
#333=VERTEX_POINT('',#1140);
#334=VERTEX_POINT('',#1144);
#335=EDGE_CURVE('',#277,#278,#275,.T.);
#336=EDGE_CURVE('',#278,#279,#185,.T.);
#337=EDGE_CURVE('',#279,#280,#147,.F.);
#338=EDGE_CURVE('',#280,#277,#186,.T.);
#339=EDGE_CURVE('',#277,#281,#51,.T.);
#340=EDGE_CURVE('',#282,#281,#276,.T.);
#341=EDGE_CURVE('',#283,#282,#187,.T.);
#342=EDGE_CURVE('',#284,#283,#52,.T.);
#343=EDGE_CURVE('',#284,#278,#188,.T.);
#344=EDGE_CURVE('',#285,#280,#189,.T.);
#345=EDGE_CURVE('',#286,#285,#190,.T.);
#346=EDGE_CURVE('',#286,#287,#191,.T.);
#347=EDGE_CURVE('',#288,#287,#192,.T.);
#348=EDGE_CURVE('',#289,#288,#193,.T.);
#349=EDGE_CURVE('',#281,#289,#194,.T.);
#350=EDGE_CURVE('',#289,#290,#148,.F.);
#351=EDGE_CURVE('',#290,#282,#195,.T.);
#352=EDGE_CURVE('',#291,#290,#196,.T.);
#353=EDGE_CURVE('',#291,#292,#197,.T.);
#354=EDGE_CURVE('',#293,#292,#198,.T.);
#355=EDGE_CURVE('',#283,#293,#199,.T.);
#356=EDGE_CURVE('',#294,#295,#149,.T.);
#357=EDGE_CURVE('',#295,#296,#200,.T.);
#358=EDGE_CURVE('',#296,#297,#150,.T.);
#359=EDGE_CURVE('',#297,#294,#201,.T.);
#360=EDGE_CURVE('',#297,#298,#202,.T.);
#361=EDGE_CURVE('',#299,#298,#203,.T.);
#362=EDGE_CURVE('',#300,#299,#204,.T.);
#363=EDGE_CURVE('',#300,#301,#205,.T.);
#364=EDGE_CURVE('',#301,#292,#151,.T.);
#365=EDGE_CURVE('',#294,#291,#206,.T.);
#366=EDGE_CURVE('',#302,#302,#152,.T.);
#367=EDGE_CURVE('',#303,#303,#153,.T.);
#368=EDGE_CURVE('',#304,#296,#207,.T.);
#369=EDGE_CURVE('',#287,#304,#154,.T.);
#370=EDGE_CURVE('',#305,#286,#155,.T.);
#371=EDGE_CURVE('',#306,#305,#208,.T.);
#372=EDGE_CURVE('',#298,#306,#156,.T.);
#373=EDGE_CURVE('',#307,#307,#157,.T.);
#374=EDGE_CURVE('',#308,#308,#158,.T.);
#375=EDGE_CURVE('',#309,#309,#159,.T.);
#376=EDGE_CURVE('',#310,#310,#160,.T.);
#377=EDGE_CURVE('',#311,#311,#161,.T.);
#378=EDGE_CURVE('',#312,#312,#162,.T.);
#379=EDGE_CURVE('',#313,#288,#163,.T.);
#380=EDGE_CURVE('',#304,#313,#209,.T.);
#381=EDGE_CURVE('',#285,#314,#164,.T.);
#382=EDGE_CURVE('',#314,#305,#210,.T.);
#383=EDGE_CURVE('',#315,#299,#165,.T.);
#384=EDGE_CURVE('',#306,#315,#211,.T.);
#385=EDGE_CURVE('',#279,#300,#212,.T.);
#386=EDGE_CURVE('',#315,#314,#213,.T.);
#387=EDGE_CURVE('',#316,#316,#166,.T.);
#388=EDGE_CURVE('',#317,#317,#167,.T.);
#389=EDGE_CURVE('',#318,#318,#168,.T.);
#390=EDGE_CURVE('',#313,#295,#214,.T.);
#391=EDGE_CURVE('',#319,#319,#169,.T.);
#392=EDGE_CURVE('',#319,#302,#215,.T.);
#393=EDGE_CURVE('',#320,#320,#170,.T.);
#394=EDGE_CURVE('',#320,#303,#216,.T.);
#395=EDGE_CURVE('',#321,#321,#171,.T.);
#396=EDGE_CURVE('',#321,#312,#217,.T.);
#397=EDGE_CURVE('',#318,#311,#218,.T.);
#398=EDGE_CURVE('',#322,#322,#172,.T.);
#399=EDGE_CURVE('',#323,#323,#173,.T.);
#400=EDGE_CURVE('',#324,#324,#174,.T.);
#401=EDGE_CURVE('',#324,#322,#219,.T.);
#402=EDGE_CURVE('',#323,#310,#220,.T.);
#403=EDGE_CURVE('',#325,#325,#175,.T.);
#404=EDGE_CURVE('',#326,#326,#176,.T.);
#405=EDGE_CURVE('',#327,#327,#177,.T.);
#406=EDGE_CURVE('',#327,#325,#221,.T.);
#407=EDGE_CURVE('',#326,#309,#222,.T.);
#408=EDGE_CURVE('',#328,#328,#178,.T.);
#409=EDGE_CURVE('',#329,#329,#179,.T.);
#410=EDGE_CURVE('',#317,#328,#223,.T.);
#411=EDGE_CURVE('',#329,#308,#224,.T.);
#412=EDGE_CURVE('',#330,#330,#180,.T.);
#413=EDGE_CURVE('',#331,#331,#181,.T.);
#414=EDGE_CURVE('',#316,#330,#225,.T.);
#415=EDGE_CURVE('',#331,#307,#226,.T.);
#416=EDGE_CURVE('',#332,#332,#182,.T.);
#417=EDGE_CURVE('',#332,#333,#227,.T.);
#418=EDGE_CURVE('',#333,#333,#183,.T.);
#419=EDGE_CURVE('',#334,#293,#184,.T.);
#420=EDGE_CURVE('',#301,#334,#228,.T.);
#421=EDGE_CURVE('',#284,#334,#229,.T.);
#422=ORIENTED_EDGE('',*,*,#335,.T.);
#423=ORIENTED_EDGE('',*,*,#336,.T.);
#424=ORIENTED_EDGE('',*,*,#337,.T.);
#425=ORIENTED_EDGE('',*,*,#338,.T.);
#426=ORIENTED_EDGE('',*,*,#335,.F.);
#427=ORIENTED_EDGE('',*,*,#339,.T.);
#428=ORIENTED_EDGE('',*,*,#340,.F.);
#429=ORIENTED_EDGE('',*,*,#341,.F.);
#430=ORIENTED_EDGE('',*,*,#342,.F.);
#431=ORIENTED_EDGE('',*,*,#343,.T.);
#432=ORIENTED_EDGE('',*,*,#338,.F.);
#433=ORIENTED_EDGE('',*,*,#344,.F.);
#434=ORIENTED_EDGE('',*,*,#345,.F.);
#435=ORIENTED_EDGE('',*,*,#346,.T.);
#436=ORIENTED_EDGE('',*,*,#347,.F.);
#437=ORIENTED_EDGE('',*,*,#348,.F.);
#438=ORIENTED_EDGE('',*,*,#349,.F.);
#439=ORIENTED_EDGE('',*,*,#339,.F.);
#440=ORIENTED_EDGE('',*,*,#340,.T.);
#441=ORIENTED_EDGE('',*,*,#349,.T.);
#442=ORIENTED_EDGE('',*,*,#350,.T.);
#443=ORIENTED_EDGE('',*,*,#351,.T.);
#444=ORIENTED_EDGE('',*,*,#351,.F.);
#445=ORIENTED_EDGE('',*,*,#352,.F.);
#446=ORIENTED_EDGE('',*,*,#353,.T.);
#447=ORIENTED_EDGE('',*,*,#354,.F.);
#448=ORIENTED_EDGE('',*,*,#355,.F.);
#449=ORIENTED_EDGE('',*,*,#341,.T.);
#450=ORIENTED_EDGE('',*,*,#356,.T.);
#451=ORIENTED_EDGE('',*,*,#357,.T.);
#452=ORIENTED_EDGE('',*,*,#358,.T.);
#453=ORIENTED_EDGE('',*,*,#359,.T.);
#454=ORIENTED_EDGE('',*,*,#359,.F.);
#455=ORIENTED_EDGE('',*,*,#360,.T.);
#456=ORIENTED_EDGE('',*,*,#361,.F.);
#457=ORIENTED_EDGE('',*,*,#362,.F.);
#458=ORIENTED_EDGE('',*,*,#363,.T.);
#459=ORIENTED_EDGE('',*,*,#364,.T.);
#460=ORIENTED_EDGE('',*,*,#353,.F.);
#461=ORIENTED_EDGE('',*,*,#365,.F.);
#462=ORIENTED_EDGE('',*,*,#366,.T.);
#463=ORIENTED_EDGE('',*,*,#367,.T.);
#464=ORIENTED_EDGE('',*,*,#358,.F.);
#465=ORIENTED_EDGE('',*,*,#368,.F.);
#466=ORIENTED_EDGE('',*,*,#369,.F.);
#467=ORIENTED_EDGE('',*,*,#346,.F.);
#468=ORIENTED_EDGE('',*,*,#370,.F.);
#469=ORIENTED_EDGE('',*,*,#371,.F.);
#470=ORIENTED_EDGE('',*,*,#372,.F.);
#471=ORIENTED_EDGE('',*,*,#360,.F.);
#472=ORIENTED_EDGE('',*,*,#373,.F.);
#473=ORIENTED_EDGE('',*,*,#374,.F.);
#474=ORIENTED_EDGE('',*,*,#375,.F.);
#475=ORIENTED_EDGE('',*,*,#376,.F.);
#476=ORIENTED_EDGE('',*,*,#377,.F.);
#477=ORIENTED_EDGE('',*,*,#378,.F.);
#478=ORIENTED_EDGE('',*,*,#379,.T.);
#479=ORIENTED_EDGE('',*,*,#347,.T.);
#480=ORIENTED_EDGE('',*,*,#369,.T.);
#481=ORIENTED_EDGE('',*,*,#380,.T.);
#482=ORIENTED_EDGE('',*,*,#381,.T.);
#483=ORIENTED_EDGE('',*,*,#382,.T.);
#484=ORIENTED_EDGE('',*,*,#370,.T.);
#485=ORIENTED_EDGE('',*,*,#345,.T.);
#486=ORIENTED_EDGE('',*,*,#383,.T.);
#487=ORIENTED_EDGE('',*,*,#361,.T.);
#488=ORIENTED_EDGE('',*,*,#372,.T.);
#489=ORIENTED_EDGE('',*,*,#384,.T.);
#490=ORIENTED_EDGE('',*,*,#381,.F.);
#491=ORIENTED_EDGE('',*,*,#344,.T.);
#492=ORIENTED_EDGE('',*,*,#337,.F.);
#493=ORIENTED_EDGE('',*,*,#385,.T.);
#494=ORIENTED_EDGE('',*,*,#362,.T.);
#495=ORIENTED_EDGE('',*,*,#383,.F.);
#496=ORIENTED_EDGE('',*,*,#386,.T.);
#497=ORIENTED_EDGE('',*,*,#387,.T.);
#498=ORIENTED_EDGE('',*,*,#388,.T.);
#499=ORIENTED_EDGE('',*,*,#389,.T.);
#500=ORIENTED_EDGE('',*,*,#357,.F.);
#501=ORIENTED_EDGE('',*,*,#390,.F.);
#502=ORIENTED_EDGE('',*,*,#380,.F.);
#503=ORIENTED_EDGE('',*,*,#368,.T.);
#504=ORIENTED_EDGE('',*,*,#391,.F.);
#505=ORIENTED_EDGE('',*,*,#392,.T.);
#506=ORIENTED_EDGE('',*,*,#366,.F.);
#507=ORIENTED_EDGE('',*,*,#392,.F.);
#508=ORIENTED_EDGE('',*,*,#393,.F.);
#509=ORIENTED_EDGE('',*,*,#394,.T.);
#510=ORIENTED_EDGE('',*,*,#367,.F.);
#511=ORIENTED_EDGE('',*,*,#394,.F.);
#512=ORIENTED_EDGE('',*,*,#395,.F.);
#513=ORIENTED_EDGE('',*,*,#396,.T.);
#514=ORIENTED_EDGE('',*,*,#378,.T.);
#515=ORIENTED_EDGE('',*,*,#396,.F.);
#516=ORIENTED_EDGE('',*,*,#389,.F.);
#517=ORIENTED_EDGE('',*,*,#397,.T.);
#518=ORIENTED_EDGE('',*,*,#377,.T.);
#519=ORIENTED_EDGE('',*,*,#397,.F.);
#520=ORIENTED_EDGE('',*,*,#398,.T.);
#521=ORIENTED_EDGE('',*,*,#399,.F.);
#522=ORIENTED_EDGE('',*,*,#400,.F.);
#523=ORIENTED_EDGE('',*,*,#401,.T.);
#524=ORIENTED_EDGE('',*,*,#398,.F.);
#525=ORIENTED_EDGE('',*,*,#401,.F.);
#526=ORIENTED_EDGE('',*,*,#399,.T.);
#527=ORIENTED_EDGE('',*,*,#402,.T.);
#528=ORIENTED_EDGE('',*,*,#376,.T.);
#529=ORIENTED_EDGE('',*,*,#402,.F.);
#530=ORIENTED_EDGE('',*,*,#403,.T.);
#531=ORIENTED_EDGE('',*,*,#404,.F.);
#532=ORIENTED_EDGE('',*,*,#405,.F.);
#533=ORIENTED_EDGE('',*,*,#406,.T.);
#534=ORIENTED_EDGE('',*,*,#403,.F.);
#535=ORIENTED_EDGE('',*,*,#406,.F.);
#536=ORIENTED_EDGE('',*,*,#404,.T.);
#537=ORIENTED_EDGE('',*,*,#407,.T.);
#538=ORIENTED_EDGE('',*,*,#375,.T.);
#539=ORIENTED_EDGE('',*,*,#407,.F.);
#540=ORIENTED_EDGE('',*,*,#408,.T.);
#541=ORIENTED_EDGE('',*,*,#409,.F.);
#542=ORIENTED_EDGE('',*,*,#388,.F.);
#543=ORIENTED_EDGE('',*,*,#410,.T.);
#544=ORIENTED_EDGE('',*,*,#408,.F.);
#545=ORIENTED_EDGE('',*,*,#410,.F.);
#546=ORIENTED_EDGE('',*,*,#409,.T.);
#547=ORIENTED_EDGE('',*,*,#411,.T.);
#548=ORIENTED_EDGE('',*,*,#374,.T.);
#549=ORIENTED_EDGE('',*,*,#411,.F.);
#550=ORIENTED_EDGE('',*,*,#412,.T.);
#551=ORIENTED_EDGE('',*,*,#413,.F.);
#552=ORIENTED_EDGE('',*,*,#387,.F.);
#553=ORIENTED_EDGE('',*,*,#414,.T.);
#554=ORIENTED_EDGE('',*,*,#412,.F.);
#555=ORIENTED_EDGE('',*,*,#414,.F.);
#556=ORIENTED_EDGE('',*,*,#413,.T.);
#557=ORIENTED_EDGE('',*,*,#415,.T.);
#558=ORIENTED_EDGE('',*,*,#373,.T.);
#559=ORIENTED_EDGE('',*,*,#415,.F.);
#560=ORIENTED_EDGE('',*,*,#416,.F.);
#561=ORIENTED_EDGE('',*,*,#391,.T.);
#562=ORIENTED_EDGE('',*,*,#393,.T.);
#563=ORIENTED_EDGE('',*,*,#416,.T.);
#564=ORIENTED_EDGE('',*,*,#417,.T.);
#565=ORIENTED_EDGE('',*,*,#418,.F.);
#566=ORIENTED_EDGE('',*,*,#417,.F.);
#567=ORIENTED_EDGE('',*,*,#419,.T.);
#568=ORIENTED_EDGE('',*,*,#354,.T.);
#569=ORIENTED_EDGE('',*,*,#364,.F.);
#570=ORIENTED_EDGE('',*,*,#420,.T.);
#571=ORIENTED_EDGE('',*,*,#342,.T.);
#572=ORIENTED_EDGE('',*,*,#355,.T.);
#573=ORIENTED_EDGE('',*,*,#419,.F.);
#574=ORIENTED_EDGE('',*,*,#421,.F.);
#575=ORIENTED_EDGE('',*,*,#418,.T.);
#576=ORIENTED_EDGE('',*,*,#336,.F.);
#577=ORIENTED_EDGE('',*,*,#343,.F.);
#578=ORIENTED_EDGE('',*,*,#421,.T.);
#579=ORIENTED_EDGE('',*,*,#420,.F.);
#580=ORIENTED_EDGE('',*,*,#363,.F.);
#581=ORIENTED_EDGE('',*,*,#385,.F.);
#582=ORIENTED_EDGE('',*,*,#382,.F.);
#583=ORIENTED_EDGE('',*,*,#386,.F.);
#584=ORIENTED_EDGE('',*,*,#384,.F.);
#585=ORIENTED_EDGE('',*,*,#371,.T.);
#586=ORIENTED_EDGE('',*,*,#356,.F.);
#587=ORIENTED_EDGE('',*,*,#365,.T.);
#588=ORIENTED_EDGE('',*,*,#352,.T.);
#589=ORIENTED_EDGE('',*,*,#350,.F.);
#590=ORIENTED_EDGE('',*,*,#348,.T.);
#591=ORIENTED_EDGE('',*,*,#379,.F.);
#592=ORIENTED_EDGE('',*,*,#390,.T.);
#593=ORIENTED_EDGE('',*,*,#395,.T.);
#594=ORIENTED_EDGE('',*,*,#400,.T.);
#595=ORIENTED_EDGE('',*,*,#405,.T.);
#596=CYLINDRICAL_SURFACE('',#675,4.);
#597=CYLINDRICAL_SURFACE('',#680,4.);
#598=CYLINDRICAL_SURFACE('',#683,4.);
#599=CYLINDRICAL_SURFACE('',#700,4.);
#600=CYLINDRICAL_SURFACE('',#702,4.);
#601=CYLINDRICAL_SURFACE('',#704,4.);
#602=CYLINDRICAL_SURFACE('',#711,2.15);
#603=CYLINDRICAL_SURFACE('',#713,2.15);
#604=CYLINDRICAL_SURFACE('',#715,2.65);
#605=CYLINDRICAL_SURFACE('',#717,2.65);
#606=CYLINDRICAL_SURFACE('',#721,3.76);
#607=CYLINDRICAL_SURFACE('',#723,2.15);
#608=CYLINDRICAL_SURFACE('',#727,3.76);
#609=CYLINDRICAL_SURFACE('',#729,2.15);
#610=CYLINDRICAL_SURFACE('',#733,3.76);
#611=CYLINDRICAL_SURFACE('',#734,2.15);
#612=CYLINDRICAL_SURFACE('',#738,3.76);
#613=CYLINDRICAL_SURFACE('',#739,2.15);
#614=CYLINDRICAL_SURFACE('',#742,19.);
#615=CYLINDRICAL_SURFACE('',#744,25.);
#616=ADVANCED_FACE('',(#54),#596,.T.);
#617=ADVANCED_FACE('',(#55),#53,.T.);
#618=ADVANCED_FACE('',(#56),#36,.T.);
#619=ADVANCED_FACE('',(#57),#597,.T.);
#620=ADVANCED_FACE('',(#58),#37,.T.);
#621=ADVANCED_FACE('',(#59),#598,.T.);
#622=ADVANCED_FACE('',(#60,#15,#16),#38,.T.);
#623=ADVANCED_FACE('',(#61,#17,#18,#19,#20,#21,#22),#39,.F.);
#624=ADVANCED_FACE('',(#62),#599,.T.);
#625=ADVANCED_FACE('',(#63),#600,.T.);
#626=ADVANCED_FACE('',(#64),#601,.T.);
#627=ADVANCED_FACE('',(#65,#23,#24,#25),#40,.T.);
#628=ADVANCED_FACE('',(#66),#41,.T.);
#629=ADVANCED_FACE('',(#67),#602,.F.);
#630=ADVANCED_FACE('',(#68),#603,.F.);
#631=ADVANCED_FACE('',(#69),#604,.F.);
#632=ADVANCED_FACE('',(#70),#605,.F.);
#633=ADVANCED_FACE('',(#71,#26),#42,.T.);
#634=ADVANCED_FACE('',(#72),#606,.F.);
#635=ADVANCED_FACE('',(#73),#607,.F.);
#636=ADVANCED_FACE('',(#74,#27),#43,.T.);
#637=ADVANCED_FACE('',(#75),#608,.F.);
#638=ADVANCED_FACE('',(#76),#609,.F.);
#639=ADVANCED_FACE('',(#77,#28),#44,.T.);
#640=ADVANCED_FACE('',(#78),#610,.F.);
#641=ADVANCED_FACE('',(#79),#611,.F.);
#642=ADVANCED_FACE('',(#80,#29),#45,.T.);
#643=ADVANCED_FACE('',(#81),#612,.F.);
#644=ADVANCED_FACE('',(#82),#613,.F.);
#645=ADVANCED_FACE('',(#83,#30,#31),#46,.F.);
#646=ADVANCED_FACE('',(#84),#614,.F.);
#647=ADVANCED_FACE('',(#85),#615,.T.);
#648=ADVANCED_FACE('',(#86,#32),#47,.T.);
#649=ADVANCED_FACE('',(#87),#48,.T.);
#650=ADVANCED_FACE('',(#88),#49,.T.);
#651=ADVANCED_FACE('',(#89,#33,#34,#35),#50,.T.);
#652=CLOSED_SHELL('',(#616,#617,#618,#619,#620,#621,#622,#623,#624,#625,
#626,#627,#628,#629,#630,#631,#632,#633,#634,#635,#636,#637,#638,#639,#640,
#641,#642,#643,#644,#645,#646,#647,#648,#649,#650,#651));
#653=DERIVED_UNIT_ELEMENT(#656,1.);
#654=DERIVED_UNIT_ELEMENT(#1157,-3.);
#655=DIMENSIONAL_EXPONENTS(0.,1.,0.,0.,0.,0.,0.);
#656=(
CONVERSION_BASED_UNIT('gram',#658)
MASS_UNIT()
NAMED_UNIT(#655)
);
#657=(
MASS_UNIT()
NAMED_UNIT(*)
SI_UNIT(.KILO.,.GRAM.)
);
#658=MASS_MEASURE_WITH_UNIT(MASS_MEASURE(0.001),#657);
#659=DERIVED_UNIT((#653,#654));
#660=MEASURE_REPRESENTATION_ITEM('density measure',
POSITIVE_RATIO_MEASURE(1.637),#659);
#661=PROPERTY_DEFINITION_REPRESENTATION(#666,#663);
#662=PROPERTY_DEFINITION_REPRESENTATION(#667,#664);
#663=REPRESENTATION('material name',(#665),#1154);
#664=REPRESENTATION('density',(#660),#1154);
#665=DESCRIPTIVE_REPRESENTATION_ITEM('PPS Plastic','PPS Plastic');
#666=PROPERTY_DEFINITION('material property','material name',#1164);
#667=PROPERTY_DEFINITION('material property','density of part',#1164);
#668=DATE_TIME_ROLE('creation_date');
#669=APPLIED_DATE_AND_TIME_ASSIGNMENT(#670,#668,(#1164));
#670=DATE_AND_TIME(#671,#672);
#671=CALENDAR_DATE(2026,17,8);
#672=LOCAL_TIME(0,0,0.,#673);
#673=COORDINATED_UNIVERSAL_TIME_OFFSET(0,0,.BEHIND.);
#674=AXIS2_PLACEMENT_3D('',#947,#750,#751);
#675=AXIS2_PLACEMENT_3D('',#948,#752,#753);
#676=AXIS2_PLACEMENT_3D('',#964,#755,#756);
#677=AXIS2_PLACEMENT_3D('',#973,#758,#759);
#678=AXIS2_PLACEMENT_3D('',#988,#761,#762);
#679=AXIS2_PLACEMENT_3D('',#990,#764,#765);
#680=AXIS2_PLACEMENT_3D('',#1002,#772,#773);
#681=AXIS2_PLACEMENT_3D('',#1004,#774,#775);
#682=AXIS2_PLACEMENT_3D('',#1006,#777,#778);
#683=AXIS2_PLACEMENT_3D('',#1014,#783,#784);
#684=AXIS2_PLACEMENT_3D('',#1017,#785,#786);
#685=AXIS2_PLACEMENT_3D('',#1021,#788,#789);
#686=AXIS2_PLACEMENT_3D('',#1023,#791,#792);
#687=AXIS2_PLACEMENT_3D('',#1032,#797,#798);
#688=AXIS2_PLACEMENT_3D('',#1035,#800,#801);
#689=AXIS2_PLACEMENT_3D('',#1037,#802,#803);
#690=AXIS2_PLACEMENT_3D('',#1038,#804,#805);
#691=AXIS2_PLACEMENT_3D('',#1041,#807,#808);
#692=AXIS2_PLACEMENT_3D('',#1043,#809,#810);
#693=AXIS2_PLACEMENT_3D('',#1046,#812,#813);
#694=AXIS2_PLACEMENT_3D('',#1048,#814,#815);
#695=AXIS2_PLACEMENT_3D('',#1050,#816,#817);
#696=AXIS2_PLACEMENT_3D('',#1052,#818,#819);
#697=AXIS2_PLACEMENT_3D('',#1054,#820,#821);
#698=AXIS2_PLACEMENT_3D('',#1056,#822,#823);
#699=AXIS2_PLACEMENT_3D('',#1058,#824,#825);
#700=AXIS2_PLACEMENT_3D('',#1059,#826,#827);
#701=AXIS2_PLACEMENT_3D('',#1061,#828,#829);
#702=AXIS2_PLACEMENT_3D('',#1063,#831,#832);
#703=AXIS2_PLACEMENT_3D('',#1065,#833,#834);
#704=AXIS2_PLACEMENT_3D('',#1067,#836,#837);
#705=AXIS2_PLACEMENT_3D('',#1069,#838,#839);
#706=AXIS2_PLACEMENT_3D('',#1071,#841,#842);
#707=AXIS2_PLACEMENT_3D('',#1075,#845,#846);
#708=AXIS2_PLACEMENT_3D('',#1077,#847,#848);
#709=AXIS2_PLACEMENT_3D('',#1079,#849,#850);
#710=AXIS2_PLACEMENT_3D('',#1080,#851,#852);
#711=AXIS2_PLACEMENT_3D('',#1082,#854,#855);
#712=AXIS2_PLACEMENT_3D('',#1084,#856,#857);
#713=AXIS2_PLACEMENT_3D('',#1086,#859,#860);
#714=AXIS2_PLACEMENT_3D('',#1088,#861,#862);
#715=AXIS2_PLACEMENT_3D('',#1090,#864,#865);
#716=AXIS2_PLACEMENT_3D('',#1092,#866,#867);
#717=AXIS2_PLACEMENT_3D('',#1094,#869,#870);
#718=AXIS2_PLACEMENT_3D('',#1096,#872,#873);
#719=AXIS2_PLACEMENT_3D('',#1098,#874,#875);
#720=AXIS2_PLACEMENT_3D('',#1100,#876,#877);
#721=AXIS2_PLACEMENT_3D('',#1101,#878,#879);
#722=AXIS2_PLACEMENT_3D('',#1103,#880,#881);
#723=AXIS2_PLACEMENT_3D('',#1105,#883,#884);
#724=AXIS2_PLACEMENT_3D('',#1107,#886,#887);
#725=AXIS2_PLACEMENT_3D('',#1109,#888,#889);
#726=AXIS2_PLACEMENT_3D('',#1111,#890,#891);
#727=AXIS2_PLACEMENT_3D('',#1112,#892,#893);
#728=AXIS2_PLACEMENT_3D('',#1114,#894,#895);
#729=AXIS2_PLACEMENT_3D('',#1116,#897,#898);
#730=AXIS2_PLACEMENT_3D('',#1118,#900,#901);
#731=AXIS2_PLACEMENT_3D('',#1120,#902,#903);
#732=AXIS2_PLACEMENT_3D('',#1122,#904,#905);
#733=AXIS2_PLACEMENT_3D('',#1123,#906,#907);
#734=AXIS2_PLACEMENT_3D('',#1125,#909,#910);
#735=AXIS2_PLACEMENT_3D('',#1127,#912,#913);
#736=AXIS2_PLACEMENT_3D('',#1129,#914,#915);
#737=AXIS2_PLACEMENT_3D('',#1131,#916,#917);
#738=AXIS2_PLACEMENT_3D('',#1132,#918,#919);
#739=AXIS2_PLACEMENT_3D('',#1134,#921,#922);
#740=AXIS2_PLACEMENT_3D('',#1136,#924,#925);
#741=AXIS2_PLACEMENT_3D('',#1138,#926,#927);
#742=AXIS2_PLACEMENT_3D('',#1139,#928,#929);
#743=AXIS2_PLACEMENT_3D('',#1142,#931,#932);
#744=AXIS2_PLACEMENT_3D('',#1143,#933,#934);
#745=AXIS2_PLACEMENT_3D('',#1145,#935,#936);
#746=AXIS2_PLACEMENT_3D('',#1147,#938,#939);
#747=AXIS2_PLACEMENT_3D('',#1149,#941,#942);
#748=AXIS2_PLACEMENT_3D('',#1150,#943,#944);
#749=AXIS2_PLACEMENT_3D('',#1151,#945,#946);
#750=DIRECTION('axis',(0.,0.,1.));
#751=DIRECTION('refdir',(1.,0.,0.));
#752=DIRECTION('center_axis',(0.,0.,1.));
#753=DIRECTION('ref_axis',(-0.707106781186548,-0.707106781186548,0.));
#754=DIRECTION('',(0.,0.,-1.));
#755=DIRECTION('center_axis',(0.,0.,-1.));
#756=DIRECTION('ref_axis',(-0.707106781186548,-0.707106781186548,0.));
#757=DIRECTION('',(0.,0.,1.));
#758=DIRECTION('center_axis',(2.27738056333365E-16,-1.,0.));
#759=DIRECTION('ref_axis',(-1.,0.,0.));
#760=DIRECTION('',(0.,-1.,0.));
#761=DIRECTION('center_axis',(0.,-1.,0.));
#762=DIRECTION('ref_axis',(-1.,0.,0.));
#763=DIRECTION('',(0.,-1.,0.));
#764=DIRECTION('center_axis',(2.27738056333365E-16,-1.,0.));
#765=DIRECTION('ref_axis',(1.,2.27738056333365E-16,0.));
#766=DIRECTION('',(1.,2.27738056333365E-16,0.));
#767=DIRECTION('',(0.,0.,1.));
#768=DIRECTION('',(1.,2.27738056333365E-16,0.));
#769=DIRECTION('',(0.,0.,-1.));
#770=DIRECTION('',(1.,2.27738056333365E-16,0.));
#771=DIRECTION('',(0.,0.,-1.));
#772=DIRECTION('center_axis',(0.,0.,-1.));
#773=DIRECTION('ref_axis',(0.707106781186548,-0.707106781186548,0.));
#774=DIRECTION('center_axis',(0.,0.,-1.));
#775=DIRECTION('ref_axis',(0.707106781186548,-0.707106781186548,0.));
#776=DIRECTION('',(0.,0.,1.));
#777=DIRECTION('center_axis',(1.,2.22044604925031E-16,0.));
#778=DIRECTION('ref_axis',(-2.22044604925031E-16,1.,0.));
#779=DIRECTION('',(0.,-1.,0.));
#780=DIRECTION('',(0.,0.,1.));
#781=DIRECTION('',(-2.22044604925031E-16,1.,0.));
#782=DIRECTION('',(0.,0.,1.));
#783=DIRECTION('center_axis',(0.,0.,1.));
#784=DIRECTION('ref_axis',(0.707106781186548,0.707106781186548,0.));
#785=DIRECTION('center_axis',(0.,0.,-1.));
#786=DIRECTION('ref_axis',(0.707106781186548,0.707106781186548,0.));
#787=DIRECTION('',(0.,0.,-1.));
#788=DIRECTION('center_axis',(0.,0.,1.));
#789=DIRECTION('ref_axis',(0.707106781186548,0.707106781186548,0.));
#790=DIRECTION('',(0.,0.,1.));
#791=DIRECTION('center_axis',(-1.70803542250024E-16,1.,0.));
#792=DIRECTION('ref_axis',(-1.,-1.70803542250024E-16,0.));
#793=DIRECTION('',(-1.,-1.70803542250024E-16,0.));
#794=DIRECTION('',(0.,0.,-1.));
#795=DIRECTION('',(-1.,-1.70803542250024E-16,0.));
#796=DIRECTION('',(0.,0.,1.));
#797=DIRECTION('center_axis',(-1.70803542250024E-16,1.,0.));
#798=DIRECTION('ref_axis',(1.,1.70803542250024E-16,0.));
#799=DIRECTION('',(-1.,-1.70803542250024E-16,0.));
#800=DIRECTION('center_axis',(1.70803542250024E-16,-1.,0.));
#801=DIRECTION('ref_axis',(1.,1.70803542250024E-16,0.));
#802=DIRECTION('center_axis',(1.70803542250024E-16,-1.,0.));
#803=DIRECTION('ref_axis',(1.,1.70803542250024E-16,0.));
#804=DIRECTION('center_axis',(0.,0.,1.));
#805=DIRECTION('ref_axis',(1.,0.,0.));
#806=DIRECTION('',(-1.66533453693773E-16,1.,0.));
#807=DIRECTION('center_axis',(0.,0.,1.));
#808=DIRECTION('ref_axis',(0.707106781186547,-0.707106781186548,0.));
#809=DIRECTION('center_axis',(0.,0.,1.));
#810=DIRECTION('ref_axis',(-0.707106781186547,-0.707106781186548,0.));
#811=DIRECTION('',(1.66533453693773E-16,-1.,0.));
#812=DIRECTION('center_axis',(0.,0.,1.));
#813=DIRECTION('ref_axis',(-0.707106781186548,0.707106781186547,0.));
#814=DIRECTION('center_axis',(0.,0.,-1.));
#815=DIRECTION('ref_axis',(1.,0.,0.));
#816=DIRECTION('center_axis',(0.,0.,-1.));
#817=DIRECTION('ref_axis',(1.,0.,0.));
#818=DIRECTION('center_axis',(0.,0.,-1.));
#819=DIRECTION('ref_axis',(1.,0.,0.));
#820=DIRECTION('center_axis',(0.,0.,-1.));
#821=DIRECTION('ref_axis',(1.,0.,0.));
#822=DIRECTION('center_axis',(0.,0.,-1.));
#823=DIRECTION('ref_axis',(1.,0.,0.));
#824=DIRECTION('center_axis',(0.,0.,-1.));
#825=DIRECTION('ref_axis',(1.,0.,0.));
#826=DIRECTION('center_axis',(0.,0.,1.));
#827=DIRECTION('ref_axis',(0.707106781186547,-0.707106781186548,0.));
#828=DIRECTION('center_axis',(0.,0.,-1.));
#829=DIRECTION('ref_axis',(0.707106781186547,-0.707106781186548,0.));
#830=DIRECTION('',(0.,0.,1.));
#831=DIRECTION('center_axis',(0.,0.,1.));
#832=DIRECTION('ref_axis',(-0.707106781186547,-0.707106781186548,0.));
#833=DIRECTION('center_axis',(0.,0.,-1.));
#834=DIRECTION('ref_axis',(-0.707106781186547,-0.707106781186548,0.));
#835=DIRECTION('',(0.,0.,-1.));
#836=DIRECTION('center_axis',(0.,0.,1.));
#837=DIRECTION('ref_axis',(-0.707106781186548,0.707106781186547,0.));
#838=DIRECTION('center_axis',(0.,0.,-1.));
#839=DIRECTION('ref_axis',(-0.707106781186548,0.707106781186547,0.));
#840=DIRECTION('',(0.,0.,1.));
#841=DIRECTION('center_axis',(0.,0.,1.));
#842=DIRECTION('ref_axis',(1.,0.,0.));
#843=DIRECTION('',(0.,1.,0.));
#844=DIRECTION('',(1.66533453693773E-16,-1.,0.));
#845=DIRECTION('center_axis',(0.,0.,-1.));
#846=DIRECTION('ref_axis',(1.,0.,0.));
#847=DIRECTION('center_axis',(0.,0.,-1.));
#848=DIRECTION('ref_axis',(1.,0.,0.));
#849=DIRECTION('center_axis',(0.,0.,-1.));
#850=DIRECTION('ref_axis',(1.,0.,0.));
#851=DIRECTION('center_axis',(1.,1.66533453693773E-16,0.));
#852=DIRECTION('ref_axis',(-1.66533453693773E-16,1.,0.));
#853=DIRECTION('',(-1.66533453693773E-16,1.,0.));
#854=DIRECTION('center_axis',(1.70803542250024E-16,-1.,0.));
#855=DIRECTION('ref_axis',(1.,1.70803542250024E-16,0.));
#856=DIRECTION('center_axis',(-1.70803542250024E-16,1.,0.));
#857=DIRECTION('ref_axis',(1.,1.70803542250024E-16,0.));
#858=DIRECTION('',(-1.70803542250024E-16,1.,0.));
#859=DIRECTION('center_axis',(1.70803542250024E-16,-1.,0.));
#860=DIRECTION('ref_axis',(1.,1.70803542250024E-16,0.));
#861=DIRECTION('center_axis',(-1.70803542250024E-16,1.,0.));
#862=DIRECTION('ref_axis',(1.,1.70803542250024E-16,0.));
#863=DIRECTION('',(-1.70803542250024E-16,1.,0.));
#864=DIRECTION('center_axis',(0.,0.,1.));
#865=DIRECTION('ref_axis',(1.,0.,0.));
#866=DIRECTION('center_axis',(0.,0.,-1.));
#867=DIRECTION('ref_axis',(1.,0.,0.));
#868=DIRECTION('',(0.,0.,-1.));
#869=DIRECTION('center_axis',(0.,0.,1.));
#870=DIRECTION('ref_axis',(1.,0.,0.));
#871=DIRECTION('',(0.,0.,-1.));
#872=DIRECTION('center_axis',(0.,0.,1.));
#873=DIRECTION('ref_axis',(1.,0.,0.));
#874=DIRECTION('center_axis',(0.,0.,1.));
#875=DIRECTION('ref_axis',(1.,0.,0.));
#876=DIRECTION('center_axis',(0.,0.,1.));
#877=DIRECTION('ref_axis',(1.,0.,0.));
#878=DIRECTION('center_axis',(0.,0.,1.));
#879=DIRECTION('ref_axis',(1.,0.,0.));
#880=DIRECTION('center_axis',(0.,0.,-1.));
#881=DIRECTION('ref_axis',(1.,0.,0.));
#882=DIRECTION('',(0.,0.,-1.));
#883=DIRECTION('center_axis',(0.,0.,1.));
#884=DIRECTION('ref_axis',(1.,0.,0.));
#885=DIRECTION('',(0.,0.,-1.));
#886=DIRECTION('center_axis',(0.,0.,1.));
#887=DIRECTION('ref_axis',(1.,0.,0.));
#888=DIRECTION('center_axis',(0.,0.,1.));
#889=DIRECTION('ref_axis',(1.,0.,0.));
#890=DIRECTION('center_axis',(0.,0.,1.));
#891=DIRECTION('ref_axis',(1.,0.,0.));
#892=DIRECTION('center_axis',(0.,0.,1.));
#893=DIRECTION('ref_axis',(1.,0.,0.));
#894=DIRECTION('center_axis',(0.,0.,-1.));
#895=DIRECTION('ref_axis',(1.,0.,0.));
#896=DIRECTION('',(0.,0.,-1.));
#897=DIRECTION('center_axis',(0.,0.,1.));
#898=DIRECTION('ref_axis',(1.,0.,0.));
#899=DIRECTION('',(0.,0.,-1.));
#900=DIRECTION('center_axis',(0.,0.,1.));
#901=DIRECTION('ref_axis',(1.,0.,0.));
#902=DIRECTION('center_axis',(0.,0.,1.));
#903=DIRECTION('ref_axis',(1.,0.,0.));
#904=DIRECTION('center_axis',(0.,0.,1.));
#905=DIRECTION('ref_axis',(1.,0.,0.));
#906=DIRECTION('center_axis',(0.,0.,1.));
#907=DIRECTION('ref_axis',(1.,0.,0.));
#908=DIRECTION('',(0.,0.,-1.));
#909=DIRECTION('center_axis',(0.,0.,1.));
#910=DIRECTION('ref_axis',(1.,0.,0.));
#911=DIRECTION('',(0.,0.,-1.));
#912=DIRECTION('center_axis',(0.,0.,1.));
#913=DIRECTION('ref_axis',(1.,0.,0.));
#914=DIRECTION('center_axis',(0.,0.,1.));
#915=DIRECTION('ref_axis',(1.,0.,0.));
#916=DIRECTION('center_axis',(0.,0.,1.));
#917=DIRECTION('ref_axis',(1.,0.,0.));
#918=DIRECTION('center_axis',(0.,0.,1.));
#919=DIRECTION('ref_axis',(1.,0.,0.));
#920=DIRECTION('',(0.,0.,-1.));
#921=DIRECTION('center_axis',(0.,0.,1.));
#922=DIRECTION('ref_axis',(1.,0.,0.));
#923=DIRECTION('',(0.,0.,-1.));
#924=DIRECTION('center_axis',(-1.70803542250024E-16,1.,0.));
#925=DIRECTION('ref_axis',(0.,0.,1.));
#926=DIRECTION('center_axis',(-1.70803542250024E-16,1.,0.));
#927=DIRECTION('ref_axis',(1.,1.66533453693773E-16,0.));
#928=DIRECTION('center_axis',(1.66533453693773E-16,-1.,0.));
#929=DIRECTION('ref_axis',(1.,1.66533453693773E-16,0.));
#930=DIRECTION('',(1.66533453693773E-16,-1.,0.));
#931=DIRECTION('center_axis',(0.,1.,0.));
#932=DIRECTION('ref_axis',(1.,1.66533453693773E-16,0.));
#933=DIRECTION('center_axis',(1.48029736616687E-16,-1.,0.));
#934=DIRECTION('ref_axis',(1.,1.48029736616687E-16,0.));
#935=DIRECTION('center_axis',(0.,1.,0.));
#936=DIRECTION('ref_axis',(1.,1.48029736616687E-16,0.));
#937=DIRECTION('',(2.22044604925031E-16,-1.,0.));
#938=DIRECTION('center_axis',(0.,-1.,0.));
#939=DIRECTION('ref_axis',(1.,0.,0.));
#940=DIRECTION('',(0.,0.,1.));
#941=DIRECTION('center_axis',(-1.,-2.22044604925031E-16,0.));
#942=DIRECTION('ref_axis',(2.22044604925031E-16,-1.,0.));
#943=DIRECTION('center_axis',(-1.,-1.66533453693773E-16,0.));
#944=DIRECTION('ref_axis',(1.66533453693773E-16,-1.,0.));
#945=DIRECTION('center_axis',(0.,0.,1.));
#946=DIRECTION('ref_axis',(1.,0.,0.));
#947=CARTESIAN_POINT('',(0.,0.,0.));
#948=CARTESIAN_POINT('Origin',(-21.,-50.5,5.));
#949=CARTESIAN_POINT('',(-21.,-54.5,17.9914789229262));
#950=CARTESIAN_POINT('',(-25.,-50.5,19.6899039884101));
#951=CARTESIAN_POINT('Ctrl Pts',(-21.,-54.5,17.9914789229262));
#952=CARTESIAN_POINT('Ctrl Pts',(-21.5109305649663,-54.5,18.1819154941098));
#953=CARTESIAN_POINT('Ctrl Pts',(-22.0541060946587,-54.3965849545267,18.394743832741));
#954=CARTESIAN_POINT('Ctrl Pts',(-23.0542122830651,-53.9748705912054,18.8064918874293));
#955=CARTESIAN_POINT('Ctrl Pts',(-23.5113153277027,-53.65663247556,19.0050554768415));
#956=CARTESIAN_POINT('Ctrl Pts',(-24.2068271024351,-52.93841566415,19.316393479113));
#957=CARTESIAN_POINT('Ctrl Pts',(-24.5028513660305,-52.5009248923924,19.4540144882352));
#958=CARTESIAN_POINT('Ctrl Pts',(-24.8996122119444,-51.5328076232979,19.641196135498));
#959=CARTESIAN_POINT('Ctrl Pts',(-25.,-51.0018735415566,19.6899039884101));
#960=CARTESIAN_POINT('Ctrl Pts',(-25.,-50.5,19.6899039884101));
#961=CARTESIAN_POINT('',(-25.,-50.5,10.));
#962=CARTESIAN_POINT('',(-25.,-50.5,5.));
#963=CARTESIAN_POINT('',(-21.,-54.5,10.));
#964=CARTESIAN_POINT('Origin',(-21.,-50.5,10.));
#965=CARTESIAN_POINT('',(-21.,-54.5,5.));
#966=CARTESIAN_POINT('Ctrl Pts',(-25.,7.50000000000001,19.6899039884101));
#967=CARTESIAN_POINT('Ctrl Pts',(8.88178419700125E-15,7.50000000000001,
7.66925057245964));
#968=CARTESIAN_POINT('Ctrl Pts',(25.,7.50000000000001,19.6899039884101));
#969=CARTESIAN_POINT('Ctrl Pts',(-25.,-54.5,19.6899039884101));
#970=CARTESIAN_POINT('Ctrl Pts',(8.88178419700125E-15,-54.5,7.66925057245964));
#971=CARTESIAN_POINT('Ctrl Pts',(25.,-54.5,19.6899039884101));
#972=CARTESIAN_POINT('',(21.,-54.5,17.9914789229262));
#973=CARTESIAN_POINT('Origin',(8.88178419700125E-15,-54.5,40.));
#974=CARTESIAN_POINT('',(25.,-50.5,19.6899039884101));
#975=CARTESIAN_POINT('Ctrl Pts',(25.,-50.5,19.6899039884101));
#976=CARTESIAN_POINT('Ctrl Pts',(25.,-51.0018735415566,19.6899039884101));
#977=CARTESIAN_POINT('Ctrl Pts',(24.8996122119444,-51.5328076232979,19.641196135498));
#978=CARTESIAN_POINT('Ctrl Pts',(24.5028513660305,-52.5009248923924,19.4540144882352));
#979=CARTESIAN_POINT('Ctrl Pts',(24.2068271024351,-52.93841566415,19.3163934791131));
#980=CARTESIAN_POINT('Ctrl Pts',(23.5113153277028,-53.6566324755599,19.0050554768415));
#981=CARTESIAN_POINT('Ctrl Pts',(23.0542122830651,-53.9748705912054,18.8064918874293));
#982=CARTESIAN_POINT('Ctrl Pts',(22.0541060946587,-54.3965849545267,18.394743832741));
#983=CARTESIAN_POINT('Ctrl Pts',(21.5109305649664,-54.5,18.1819154941098));
#984=CARTESIAN_POINT('Ctrl Pts',(21.,-54.5,17.9914789229262));
#985=CARTESIAN_POINT('',(25.,7.50000000000001,19.6899039884101));
#986=CARTESIAN_POINT('',(25.,7.50000000000001,19.6899039884101));
#987=CARTESIAN_POINT('',(-25.,7.50000000000001,19.6899039884101));
#988=CARTESIAN_POINT('Origin',(8.88178419700125E-15,7.50000000000001,40.));
#989=CARTESIAN_POINT('',(-25.,7.50000000000001,19.6899039884101));
#990=CARTESIAN_POINT('Origin',(-39.,-54.5,0.));
#991=CARTESIAN_POINT('',(-35.,-54.5,10.));
#992=CARTESIAN_POINT('',(-39.,-54.5,10.));
#993=CARTESIAN_POINT('',(-35.,-54.5,3.));
#994=CARTESIAN_POINT('',(-35.,-54.5,0.));
#995=CARTESIAN_POINT('',(35.,-54.5,3.));
#996=CARTESIAN_POINT('',(-19.5,-54.5,3.));
#997=CARTESIAN_POINT('',(35.,-54.5,10.));
#998=CARTESIAN_POINT('',(35.,-54.5,0.));
#999=CARTESIAN_POINT('',(21.,-54.5,10.));
#1000=CARTESIAN_POINT('',(-39.,-54.5,10.));
#1001=CARTESIAN_POINT('',(21.,-54.5,5.));
#1002=CARTESIAN_POINT('Origin',(21.,-50.5,5.));
#1003=CARTESIAN_POINT('',(25.,-50.5,10.));
#1004=CARTESIAN_POINT('Origin',(21.,-50.5,10.));
#1005=CARTESIAN_POINT('',(25.,-50.5,5.));
#1006=CARTESIAN_POINT('Origin',(25.,7.50000000000001,10.));
#1007=CARTESIAN_POINT('',(25.,29.5,10.));
#1008=CARTESIAN_POINT('',(25.,-2.5,10.));
#1009=CARTESIAN_POINT('',(25.,29.5,40.));
#1010=CARTESIAN_POINT('',(25.,29.5,10.));
#1011=CARTESIAN_POINT('',(25.,7.50000000000001,40.));
#1012=CARTESIAN_POINT('',(25.,7.50000000000001,40.));
#1013=CARTESIAN_POINT('',(25.,7.50000000000001,10.));
#1014=CARTESIAN_POINT('Origin',(35.,25.5,0.));
#1015=CARTESIAN_POINT('',(35.,29.5,10.));
#1016=CARTESIAN_POINT('',(39.,25.5,10.));
#1017=CARTESIAN_POINT('Origin',(35.,25.5,10.));
#1018=CARTESIAN_POINT('',(39.,25.5,3.));
#1019=CARTESIAN_POINT('',(39.,25.5,0.));
#1020=CARTESIAN_POINT('',(35.,29.5,3.));
#1021=CARTESIAN_POINT('Origin',(35.,25.5,3.));
#1022=CARTESIAN_POINT('',(35.,29.5,0.));
#1023=CARTESIAN_POINT('Origin',(39.,29.5,0.));
#1024=CARTESIAN_POINT('',(-35.,29.5,3.));
#1025=CARTESIAN_POINT('',(19.5,29.5,3.));
#1026=CARTESIAN_POINT('',(-35.,29.5,10.));
#1027=CARTESIAN_POINT('',(-35.,29.5,0.));
#1028=CARTESIAN_POINT('',(-25.,29.5,10.));
#1029=CARTESIAN_POINT('',(39.,29.5,10.));
#1030=CARTESIAN_POINT('',(-25.,29.5,40.));
#1031=CARTESIAN_POINT('',(-25.,29.5,10.));
#1032=CARTESIAN_POINT('Origin',(4.09928501400058E-15,29.5,40.));
#1033=CARTESIAN_POINT('',(39.,29.5,10.));
#1034=CARTESIAN_POINT('',(8.69999999999524,29.5,28.95));
#1035=CARTESIAN_POINT('Origin',(10.8499999999952,29.5,28.95));
#1036=CARTESIAN_POINT('',(-13.0000000000048,29.5,51.05));
#1037=CARTESIAN_POINT('Origin',(-10.8500000000048,29.5,51.05));
#1038=CARTESIAN_POINT('Origin',(4.44089209850063E-15,-12.5,3.));
#1039=CARTESIAN_POINT('',(39.,-50.5,3.));
#1040=CARTESIAN_POINT('',(39.,-32.5,3.));
#1041=CARTESIAN_POINT('Origin',(35.,-50.5,3.));
#1042=CARTESIAN_POINT('',(-39.,-50.5,3.));
#1043=CARTESIAN_POINT('Origin',(-35.,-50.5,3.));
#1044=CARTESIAN_POINT('',(-39.,25.5,3.));
#1045=CARTESIAN_POINT('',(-39.,7.49999999999999,3.));
#1046=CARTESIAN_POINT('Origin',(-35.,25.5,3.));
#1047=CARTESIAN_POINT('',(-35.1499999999982,22.5000000000003,3.00000000000001));
#1048=CARTESIAN_POINT('Origin',(-32.9999999999982,22.5000000000003,3.00000000000001));
#1049=CARTESIAN_POINT('',(-35.1499999999975,-47.4999999999999,3.00000000000001));
#1050=CARTESIAN_POINT('Origin',(-32.9999999999975,-47.4999999999999,3.00000000000001));
#1051=CARTESIAN_POINT('',(30.8500000000027,-47.4999999999999,3.00000000000001));
#1052=CARTESIAN_POINT('Origin',(33.0000000000027,-47.4999999999999,3.00000000000001));
#1053=CARTESIAN_POINT('',(30.850000000002,22.5000000000004,3.00000000000001));
#1054=CARTESIAN_POINT('Origin',(33.000000000002,22.5000000000004,3.00000000000001));
#1055=CARTESIAN_POINT('',(-35.6499999999979,-12.4999999999998,3.00000000000001));
#1056=CARTESIAN_POINT('Origin',(-32.9999999999979,-12.4999999999998,3.00000000000001));
#1057=CARTESIAN_POINT('',(30.3500000000023,-12.4999999999998,3.00000000000001));
#1058=CARTESIAN_POINT('Origin',(33.0000000000023,-12.4999999999998,3.00000000000001));
#1059=CARTESIAN_POINT('Origin',(35.,-50.5,0.));
#1060=CARTESIAN_POINT('',(39.,-50.5,10.));
#1061=CARTESIAN_POINT('Origin',(35.,-50.5,10.));
#1062=CARTESIAN_POINT('',(39.,-50.5,0.));
#1063=CARTESIAN_POINT('Origin',(-35.,-50.5,0.));
#1064=CARTESIAN_POINT('',(-39.,-50.5,10.));
#1065=CARTESIAN_POINT('Origin',(-35.,-50.5,10.));
#1066=CARTESIAN_POINT('',(-39.,-50.5,0.));
#1067=CARTESIAN_POINT('Origin',(-35.,25.5,0.));
#1068=CARTESIAN_POINT('',(-39.,25.5,10.));
#1069=CARTESIAN_POINT('Origin',(-35.,25.5,10.));
#1070=CARTESIAN_POINT('',(-39.,25.5,0.));
#1071=CARTESIAN_POINT('Origin',(0.,-12.5,10.));
#1072=CARTESIAN_POINT('',(-25.,-2.5,10.));
#1073=CARTESIAN_POINT('',(-39.,27.5,10.));
#1074=CARTESIAN_POINT('',(-36.7599999999982,22.5000000000003,10.));
#1075=CARTESIAN_POINT('Origin',(-32.9999999999982,22.5000000000003,10.));
#1076=CARTESIAN_POINT('',(-36.7599999999975,-47.4999999999999,10.));
#1077=CARTESIAN_POINT('Origin',(-32.9999999999975,-47.4999999999999,10.));
#1078=CARTESIAN_POINT('',(-35.6499999999979,-12.4999999999998,10.));
#1079=CARTESIAN_POINT('Origin',(-32.9999999999979,-12.4999999999998,10.));
#1080=CARTESIAN_POINT('Origin',(39.,-52.5,0.));
#1081=CARTESIAN_POINT('',(39.,-52.5,10.));
#1082=CARTESIAN_POINT('Origin',(10.8499999999952,141.763297188336,28.95));
#1083=CARTESIAN_POINT('',(8.69999999999524,12.5,28.95));
#1084=CARTESIAN_POINT('Origin',(10.8499999999952,12.5,28.95));
#1085=CARTESIAN_POINT('',(8.69999999999522,141.763297188336,28.95));
#1086=CARTESIAN_POINT('Origin',(-10.8500000000048,141.763297188336,51.05));
#1087=CARTESIAN_POINT('',(-13.0000000000047,12.5,51.05));
#1088=CARTESIAN_POINT('Origin',(-10.8500000000047,12.5,51.05));
#1089=CARTESIAN_POINT('',(-13.0000000000048,141.763297188336,51.05));
#1090=CARTESIAN_POINT('Origin',(33.0000000000023,-12.4999999999998,-119.263297188336));
#1091=CARTESIAN_POINT('',(30.3500000000023,-12.4999999999998,10.));
#1092=CARTESIAN_POINT('Origin',(33.0000000000023,-12.4999999999998,10.));
#1093=CARTESIAN_POINT('',(30.3500000000023,-12.4999999999998,-119.263297188336));
#1094=CARTESIAN_POINT('Origin',(-32.9999999999979,-12.4999999999998,-119.263297188336));
#1095=CARTESIAN_POINT('',(-35.6499999999979,-12.4999999999998,-119.263297188336));
#1096=CARTESIAN_POINT('Origin',(33.000000000002,22.5000000000004,6.));
#1097=CARTESIAN_POINT('',(29.240000000002,22.5000000000004,6.));
#1098=CARTESIAN_POINT('Origin',(33.000000000002,22.5000000000004,6.));
#1099=CARTESIAN_POINT('',(30.850000000002,22.5000000000004,6.));
#1100=CARTESIAN_POINT('Origin',(33.000000000002,22.5000000000004,6.));
#1101=CARTESIAN_POINT('Origin',(33.000000000002,22.5000000000004,8.));
#1102=CARTESIAN_POINT('',(29.240000000002,22.5000000000004,10.));
#1103=CARTESIAN_POINT('Origin',(33.000000000002,22.5000000000004,10.));
#1104=CARTESIAN_POINT('',(29.240000000002,22.5000000000004,8.));
#1105=CARTESIAN_POINT('Origin',(33.000000000002,22.5000000000004,-119.263297188336));
#1106=CARTESIAN_POINT('',(30.850000000002,22.5000000000004,-119.263297188336));
#1107=CARTESIAN_POINT('Origin',(33.0000000000027,-47.4999999999999,6.));
#1108=CARTESIAN_POINT('',(29.2400000000027,-47.4999999999999,6.));
#1109=CARTESIAN_POINT('Origin',(33.0000000000027,-47.4999999999999,6.));
#1110=CARTESIAN_POINT('',(30.8500000000027,-47.4999999999999,6.));
#1111=CARTESIAN_POINT('Origin',(33.0000000000027,-47.4999999999999,6.));
#1112=CARTESIAN_POINT('Origin',(33.0000000000027,-47.4999999999999,8.));
#1113=CARTESIAN_POINT('',(29.2400000000027,-47.4999999999999,10.));
#1114=CARTESIAN_POINT('Origin',(33.0000000000027,-47.4999999999999,10.));
#1115=CARTESIAN_POINT('',(29.2400000000027,-47.4999999999999,8.));
#1116=CARTESIAN_POINT('Origin',(33.0000000000027,-47.4999999999999,-119.263297188336));
#1117=CARTESIAN_POINT('',(30.8500000000027,-47.4999999999999,-119.263297188336));
#1118=CARTESIAN_POINT('Origin',(-32.9999999999975,-47.4999999999999,6.));
#1119=CARTESIAN_POINT('',(-36.7599999999975,-47.4999999999999,6.));
#1120=CARTESIAN_POINT('Origin',(-32.9999999999975,-47.4999999999999,6.));
#1121=CARTESIAN_POINT('',(-35.1499999999975,-47.4999999999999,6.));
#1122=CARTESIAN_POINT('Origin',(-32.9999999999975,-47.4999999999999,6.));
#1123=CARTESIAN_POINT('Origin',(-32.9999999999975,-47.4999999999999,8.));
#1124=CARTESIAN_POINT('',(-36.7599999999975,-47.4999999999999,8.));
#1125=CARTESIAN_POINT('Origin',(-32.9999999999975,-47.4999999999999,-119.263297188336));
#1126=CARTESIAN_POINT('',(-35.1499999999975,-47.4999999999999,-119.263297188336));
#1127=CARTESIAN_POINT('Origin',(-32.9999999999982,22.5000000000003,6.));
#1128=CARTESIAN_POINT('',(-36.7599999999982,22.5000000000003,6.));
#1129=CARTESIAN_POINT('Origin',(-32.9999999999982,22.5000000000003,6.));
#1130=CARTESIAN_POINT('',(-35.1499999999982,22.5000000000003,6.));
#1131=CARTESIAN_POINT('Origin',(-32.9999999999982,22.5000000000003,6.));
#1132=CARTESIAN_POINT('Origin',(-32.9999999999982,22.5000000000003,8.));
#1133=CARTESIAN_POINT('',(-36.7599999999982,22.5000000000003,8.));
#1134=CARTESIAN_POINT('Origin',(-32.9999999999982,22.5000000000003,-119.263297188336));
#1135=CARTESIAN_POINT('',(-35.1499999999982,22.5000000000003,-119.263297188336));
#1136=CARTESIAN_POINT('Origin',(6.66133814775094E-15,12.5,40.));
#1137=CARTESIAN_POINT('',(-19.,12.5,40.));
#1138=CARTESIAN_POINT('Origin',(6.93889390390723E-15,12.5,40.));
#1139=CARTESIAN_POINT('Origin',(4.44089209850063E-15,27.5,40.));
#1140=CARTESIAN_POINT('',(-19.,7.50000000000001,40.));
#1141=CARTESIAN_POINT('',(-19.,27.5,40.));
#1142=CARTESIAN_POINT('Origin',(7.77156117237609E-15,7.50000000000001,40.));
#1143=CARTESIAN_POINT('Origin',(4.44089209850063E-15,27.5,40.));
#1144=CARTESIAN_POINT('',(-25.,7.50000000000001,40.));
#1145=CARTESIAN_POINT('Origin',(7.40148683083437E-15,7.50000000000001,40.));
#1146=CARTESIAN_POINT('',(-25.,27.5,40.));
#1147=CARTESIAN_POINT('Origin',(-25.,7.50000000000001,10.));
#1148=CARTESIAN_POINT('',(-25.,7.50000000000001,10.));
#1149=CARTESIAN_POINT('Origin',(-25.,27.5,10.));
#1150=CARTESIAN_POINT('Origin',(-39.,27.5,0.));
#1151=CARTESIAN_POINT('Origin',(0.,-12.5,10.));
#1152=UNCERTAINTY_MEASURE_WITH_UNIT(LENGTH_MEASURE(0.01),#1156,
'DISTANCE_ACCURACY_VALUE',
'Maximum model space distance between geometric entities at asserted c
onnectivities');
#1153=UNCERTAINTY_MEASURE_WITH_UNIT(LENGTH_MEASURE(0.01),#1156,
'DISTANCE_ACCURACY_VALUE',
'Maximum model space distance between geometric entities at asserted c
onnectivities');
#1154=(
GEOMETRIC_REPRESENTATION_CONTEXT(3)
GLOBAL_UNCERTAINTY_ASSIGNED_CONTEXT((#1152))
GLOBAL_UNIT_ASSIGNED_CONTEXT((#1156,#1158,#1159))
REPRESENTATION_CONTEXT('','3D')
);
#1155=(
GEOMETRIC_REPRESENTATION_CONTEXT(3)
GLOBAL_UNCERTAINTY_ASSIGNED_CONTEXT((#1153))
GLOBAL_UNIT_ASSIGNED_CONTEXT((#1156,#1158,#1159))
REPRESENTATION_CONTEXT('','3D')
);
#1156=(
LENGTH_UNIT()
NAMED_UNIT(*)
SI_UNIT(.MILLI.,.METRE.)
);
#1157=(
LENGTH_UNIT()
NAMED_UNIT(*)
SI_UNIT(.CENTI.,.METRE.)
);
#1158=(
NAMED_UNIT(*)
PLANE_ANGLE_UNIT()
SI_UNIT($,.RADIAN.)
);
#1159=(
NAMED_UNIT(*)
SI_UNIT($,.STERADIAN.)
SOLID_ANGLE_UNIT()
);
#1160=SHAPE_DEFINITION_REPRESENTATION(#1161,#1162);
#1161=PRODUCT_DEFINITION_SHAPE('',$,#1164);
#1162=SHAPE_REPRESENTATION('',(#674),#1154);
#1163=PRODUCT_DEFINITION_CONTEXT('part definition',#1168,'design');
#1164=PRODUCT_DEFINITION('Dam1','Dam1',#1165,#1163);
#1165=PRODUCT_DEFINITION_FORMATION('',$,#1170);
#1166=PRODUCT_RELATED_PRODUCT_CATEGORY('Dam1','Dam1',(#1170));
#1167=APPLICATION_PROTOCOL_DEFINITION('international standard',
'automotive_design',2009,#1168);
#1168=APPLICATION_CONTEXT(
'Core Data for Automotive Mechanical Design Process');
#1169=PRODUCT_CONTEXT('part definition',#1168,'mechanical');
#1170=PRODUCT('Dam1','Dam1',$,(#1169));
#1171=PRESENTATION_STYLE_ASSIGNMENT((#1172));
#1172=SURFACE_STYLE_USAGE(.BOTH.,#1175);
#1173=SURFACE_STYLE_RENDERING_WITH_PROPERTIES($,#1179,(#1174));
#1174=SURFACE_STYLE_TRANSPARENT(0.);
#1175=SURFACE_SIDE_STYLE('',(#1176,#1173));
#1176=SURFACE_STYLE_FILL_AREA(#1177);
#1177=FILL_AREA_STYLE('',(#1178));
#1178=FILL_AREA_STYLE_COLOUR('',#1179);
#1179=COLOUR_RGB('',0.92156862745098,0.92156862745098,0.92156862745098);
ENDSEC;
END-ISO-10303-21;
